# xmcd
#
# Track frame offsets:
#	150
#	12325
#	24162
#	38507
#	51507
#	64567
#	78217
#	90065
#	101112
#	115657
#	129402
#	138907
#
# Disc length: 1996 seconds
#
# Revision: 1
# Processed by: cddbd v1.5.2PL0 Copyright (c) Steve Scherf et al.
# Submitted via: audiograbber 1.83.01
#
DISCID=8407ca0c
DTITLE=Jesse Wilson - Love won't let me let you go
DYEAR=1900
DGENRE=Country
TTITLE0=Here comes my baby (where goes my heart)
TTITLE1=Live wire
TTITLE2=I know you by heart
TTITLE3=She's at home (but the lights ain't on)
TTITLE4=Here I go falling again
TTITLE5=Love won't let me let you go
TTITLE6=By midnight
TTITLE7=Crossing your heart (wouldn't cross my mind)
TTITLE8=House of love
TTITLE9=Two handles, two hearts (and one good love)
TTITLE10=Can't help falling
TTITLE11=Don't come a knockin' (if you see her trailor rockin')
EXTD=
EXTT0=
EXTT1=
EXTT2=
EXTT3=
EXTT4=
EXTT5=
EXTT6=
EXTT7=
EXTT8=
EXTT9=
EXTT10=
EXTT11=
PLAYORDER=
